<svg xmlns="http://www.w3.org/2000/svg" viewBox="0 0 320 240" width="100%" height="100%">
  <!-- Leaves in background -->
  <path d="M190 60 C230 40, 270 90, 270 130 C270 150, 240 180, 210 170 C190 160, 180 120, 190 60 Z" fill="#7fa82a" />
  <path d="M210 90 C250 80, 280 120, 280 150 C280 170, 255 190, 235 185 C215 180, 205 140, 210 90 Z" fill="#93c137" opacity="0.9" />

  <!-- Coconut Outer Shell -->
  <circle cx="150" cy="115" r="55" fill="#6d3a1a" />
  
  <!-- Coconut Inner White Meat -->
  <circle cx="150" cy="115" r="45" fill="#ffffff" />
  <circle cx="150" cy="115" r="38" fill="#f5f5f0" />
  
  <!-- Coconut Liquid / Milk Center -->
  <path d="M110 115 C110 140, 190 140, 190 115 C190 90, 110 90, 110 115 Z" fill="#e8f3f8" opacity="0.3" />

  <!-- Coconut Milk Drip -->
  <path d="M150 160 Q145 190, 150 200 Q155 190, 150 160 Z" fill="#e3e8eb" />
  <circle cx="150" cy="202" r="3" fill="#e3e8eb" />
  
  <!-- Bottom Text: SANA AMNIS -->
  <text x="160" y="235" font-family="'Manrope', 'Inter', sans-serif" font-size="28" font-weight="900" fill="#3a1f0d" text-anchor="middle" letter-spacing="1">SANA AMNIS</text>
</svg>
